<svg xmlns="http://www.w3.org/2000/svg" width="36" height="36"><path fill="#009fdf" d="M28.931 35.991c-1.498 0-3.308-.375-5.298-1.126-4.362-1.644-9.108-4.892-13.364-9.146-4.258-4.255-7.508-9-9.154-13.36-1.496-3.965-1.5-7.218-.009-8.707.215-.214.433-.444.658-.682C3.124 1.54 4.66-.068 6.698.005c1.404.058 2.764.929 4.157 2.662 4.115 5.115 2.26 6.938.112 9.051l-.379.376c-.35.35-1.015 1.977 5.16 8.148 2.015 2.014 3.734 3.488 5.107 4.38.865.562 2.412 1.411 3.046.777l.382-.385c2.112-2.14 3.936-3.99 9.05.12 1.734 1.393 2.604 2.75 2.663 4.156.083 2.034-1.539 3.574-2.97 4.933-.236.225-.466.442-.68.656-.74.74-1.924 1.112-3.415 1.112zM6.553 1.213c-1.448 0-2.754 1.374-3.911 2.591-.233.245-.458.482-.68.704-1.11 1.109-.998 4.022.286 7.425 1.587 4.203 4.74 8.795 8.878 12.931 4.137 4.134 8.73 7.285 12.936 8.87 3.405 1.285 6.32 1.394 7.428.286.222-.221.46-.446.704-.677 1.244-1.182 2.655-2.52 2.593-4.006-.043-1.02-.786-2.118-2.21-3.262-4.262-3.426-5.454-2.217-7.43-.213l-.388.39c-.945.946-2.48.737-4.563-.616-1.445-.94-3.23-2.468-5.303-4.541-5.125-5.12-6.763-8.254-5.16-9.86l.387-.382c2.009-1.976 3.221-3.168-.208-7.43C8.765 2 7.668 1.258 6.647 1.214l-.094-.001z"/></svg>