<svg xmlns="http://www.w3.org/2000/svg" width="37" height="37"><path fill="#009fdf" d="M37 18.5C37 28.717 28.717 37 18.5 37S0 28.717 0 18.5C0 8.282 8.283 0 18.5 0 28.712.013 36.987 8.288 37 18.5zm-1.62.793h-3.26a.794.794 0 0 1 0-1.587h3.254c-.416-8.702-7.377-15.664-16.08-16.08V4.88a.794.794 0 1 1-1.587 0V1.627c-8.702.415-15.664 7.377-16.08 16.079h3.255a.794.794 0 0 1 0 1.587H1.627c.415 8.703 7.377 15.664 16.08 16.08v-3.254a.794.794 0 1 1 1.586 0v3.254c8.706-.412 15.672-7.374 16.088-16.08zm-8.519 7.71a.794.794 0 0 1-1.123-.011l-7.802-7.937a.794.794 0 0 1-.23-.555v-8.334a.794.794 0 0 1 1.587 0v8.008l7.58 7.707a.794.794 0 0 1-.012 1.123z"/></svg>