<svg xmlns="http://www.w3.org/2000/svg" width="25" height="25"><path fill="#c1e2ff" d="M25 12.5C25 19.403 19.404 25 12.5 25S0 19.403 0 12.5C0 5.596 5.596 0 12.5 0 19.4.009 24.99 5.6 25 12.5zm-1.094.536h-2.204a.536.536 0 0 1 0-1.073H23.9A11.422 11.422 0 0 0 13.036 1.1v2.199a.536.536 0 0 1-1.072 0v-2.2A11.422 11.422 0 0 0 1.099 11.964h2.199a.536.536 0 1 1 0 1.073H1.099A11.422 11.422 0 0 0 11.964 23.9v-2.198a.536.536 0 1 1 1.072 0V23.9a11.422 11.422 0 0 0 10.87-10.864zm-5.757 5.21a.536.536 0 0 1-.759-.009l-5.27-5.362a.538.538 0 0 1-.156-.375V6.87a.536.536 0 1 1 1.072 0v5.41l5.121 5.207a.537.537 0 0 1-.008.759z"/></svg>