<svg xmlns="http://www.w3.org/2000/svg" width="18" height="26" viewBox="0 0 18 26"><g><g><path fill="#c1e2ff" d="M18 9.14a9.238 9.238 0 0 1-1.27 4.683L9.768 25.63a.747.747 0 0 1-.637.37h-.006c-.26 0-.5-.135-.637-.36L1.343 13.948A9.227 9.227 0 0 1 0 9.14C0 4.1 4.037 0 9 0s9 4.1 9 9.14zm-1.495 0c0-4.2-3.37-7.627-7.505-7.627-4.136 0-7.51 3.427-7.51 7.627 0 1.42.397 2.804 1.128 4.004l6.495 10.63 6.33-10.733a7.702 7.702 0 0 0 1.062-3.9zm-3.005 0c0 2.477-1.955 4.57-4.5 4.57-2.514 0-4.5-2.066-4.5-4.57 0-2.52 2.019-4.57 4.5-4.57s4.5 2.05 4.5 4.57zm-1.495 0c0-1.68-1.35-3.057-3.005-3.057-1.654 0-3.01 1.377-3.01 3.057 0 1.685 1.347 3.057 3.01 3.057 1.69 0 3.005-1.397 3.005-3.057z"/></g></g></svg>