<svg xmlns="http://www.w3.org/2000/svg" width="25" height="25" viewBox="0 0 25 25"><g><g><path fill="#c1e2ff" d="M25 12.5C25 19.392 19.392 25 12.5 25 5.607 25 0 19.392 0 12.5 0 5.607 5.607 0 12.5 0 19.392 0 25 5.607 25 12.5zm-.893 0C24.107 6.1 18.9.893 12.5.893 6.1.893.893 6.1.893 12.5c0 6.4 5.206 11.607 11.607 11.607 6.4 0 11.607-5.207 11.607-11.607zm-5.803-4.911c0 .246-.2.446-.447.446H7.143a.446.446 0 1 1 0-.892h10.714c.247 0 .447.2.447.446zm0 4.91c0 .247-.2.447-.447.447H7.143a.446.446 0 1 1 0-.893h10.714c.247 0 .447.2.447.447zm0 4.911c0 .247-.2.447-.447.447H7.143a.447.447 0 0 1 0-.893h10.714c.247 0 .447.2.447.446z"/></g></g></svg>