<svg xmlns="http://www.w3.org/2000/svg" width="25" height="25" viewBox="0 0 25 25"><g><g><path fill="#c1e2ff" d="M20.091 24.994c-1.04 0-2.297-.26-3.679-.782-3.03-1.142-6.326-3.398-9.281-6.352-2.956-2.955-5.214-6.25-6.357-9.277C-.265 5.829-.267 3.57.768 2.536c.15-.149.3-.309.457-.473.944-.993 2.012-2.11 3.426-2.06.975.04 1.92.646 2.887 1.849 2.858 3.552 1.57 4.818.078 6.286l-.263.26c-.244.244-.705 1.373 3.583 5.658 1.4 1.4 2.593 2.423 3.547 3.043.6.39 1.674.98 2.115.54l.265-.268c1.467-1.487 2.733-2.77 6.285.083 1.204.967 1.809 1.91 1.849 2.886.058 1.413-1.068 2.482-2.062 3.426-.164.156-.324.307-.473.455-.514.515-1.336.773-2.371.773zM4.551.842c-1.006 0-1.913.955-2.716 1.8-.162.17-.318.334-.472.488-.771.77-.693 2.794.198 5.157 1.102 2.918 3.291 6.108 6.165 8.98 2.874 2.87 6.063 5.059 8.984 6.159 2.364.893 4.389.968 5.158.2.154-.155.319-.31.489-.471.864-.821 1.843-1.75 1.8-2.782-.029-.709-.545-1.471-1.534-2.266-2.96-2.379-3.788-1.539-5.16-.148l-.27.272c-.656.657-1.721.511-3.168-.429-1.003-.652-2.243-1.713-3.683-3.153-3.558-3.556-4.696-5.732-3.583-6.847l.268-.265c1.396-1.372 2.238-2.2-.143-5.16C6.087 1.389 5.325.873 4.616.843L4.551.842z"/></g></g></svg>