<svg xmlns="http://www.w3.org/2000/svg" width="22" height="22" viewBox="0 0 22 22"><g><g><path fill="#fff" d="M22 .493a.452.452 0 0 1-.01.08c-.003.015-.002.03-.006.045l-6.698 21.049a.479.479 0 0 1-.432.332h-.024a.48.48 0 0 1-.439-.288l-4.25-9.837-9.834-3.78a.478.478 0 0 1 .017-.898L21.374.02c.015-.005.032-.004.048-.008a.409.409 0 0 1 .162-.009.452.452 0 0 1 .07.013c.028.008.054.019.08.032.014.006.029.008.042.016.008.005.013.013.021.02a.478.478 0 0 1 .062.053c.02.02.038.038.054.06.006.009.015.014.02.023.009.013.01.028.018.042a.492.492 0 0 1 .046.152.484.484 0 0 1 .004.079zM10.383 10.94l9.352-9.352L1.882 7.675zM20.475 2.2l-9.406 9.407 3.693 8.55zM7.515 15.162L.816 21.86a.477.477 0 0 1-.677 0 .478.478 0 0 1 0-.677l6.698-6.697a.477.477 0 1 1 .676.676zm1.913 2.673a.478.478 0 0 1 0 .676L6.079 21.86a.477.477 0 0 1-.676 0 .478.478 0 0 1 0-.677l3.348-3.348a.478.478 0 0 1 .677 0zM.14 16.597a.478.478 0 0 1 0-.676l3.35-3.349a.477.477 0 1 1 .676.677l-3.35 3.348a.478.478 0 0 1-.676 0z"/></g></g></svg>