<svg xmlns="http://www.w3.org/2000/svg" width="26" height="37"><path fill="#009fdf" d="M26 13.007c0 2.352-.634 4.656-1.834 6.665l-10.056 16.8a1.084 1.084 0 0 1-.921.528h-.009c-.374 0-.722-.194-.92-.513L1.94 19.847A12.987 12.987 0 0 1 0 13.008C0 5.835 5.832 0 13 0s13 5.835 13 13.007zm-2.16 0c0-5.976-4.867-10.854-10.84-10.854-5.974 0-10.848 4.878-10.848 10.854 0 2.02.573 3.99 1.63 5.698l9.382 15.128 9.143-15.274a10.834 10.834 0 0 0 1.533-5.552zm-4.34 0c0 3.525-2.824 6.504-6.5 6.504-3.632 0-6.5-2.94-6.5-6.504 0-3.586 2.916-6.503 6.5-6.503s6.5 2.917 6.5 6.503zm-2.16 0c0-2.39-1.95-4.35-4.34-4.35-2.39 0-4.348 1.96-4.348 4.35A4.352 4.352 0 0 0 13 17.357c2.44 0 4.34-1.988 4.34-4.35z"/></svg>